<svg width="222" height="43" viewBox="0 0 222 43" fill="none" xmlns="http://www.w3.org/2000/svg">
<path fill-rule="evenodd" clip-rule="evenodd" d="M127.058 16.553L130.999 0.00913239C144.416 2.22728 138.274 19.098 132.793 38.1538C127.025 33.778 127.641 24.8929 127.058 16.553Z" fill="white"/>
<path fill-rule="evenodd" clip-rule="evenodd" d="M112.216 24.0289L108.865 38.0938C103.195 33.7079 103.789 24.8943 103.214 16.6089L106.574 2.50452C112.242 6.90283 111.636 15.7349 112.216 24.0289Z" fill="#4D4D4D"/>
<path fill-rule="evenodd" clip-rule="evenodd" d="M42.1144 13.5031C31.3013 13.9369 20.4888 14.3731 9.67583 14.8078L7.65061 14.8893L7.52819 13.9269C7.02018 13.8639 6.33273 13.8579 5.77084 13.9044L5.81479 14.7469L2.48267 14.7839C2.10703 17.3088 2.10808 23.2832 2.48633 25.8036L5.81479 25.8411L5.77084 26.6831C6.33273 26.7301 7.02018 26.7241 7.52819 26.6606L7.65061 25.6977L9.67583 25.7791C20.4888 26.2149 31.3013 26.6506 42.1144 27.0843C42.66 27.0878 43.2041 27.1408 43.7399 27.2417C47.6595 27.9788 51.0476 31.3797 54.0914 33.6938C57.9033 36.5905 61.5729 38.3764 66.5635 38.3804C69.9704 38.3829 73.3773 38.3869 76.7842 38.3919H102.914H105.687C106.421 39.1944 107.277 39.924 108.277 40.5656C107.103 40.6051 106.018 40.5861 104.999 40.5231C105.039 40.5261 105.077 40.5321 105.118 40.5361C92.2661 40.5161 79.4143 40.4961 66.5614 40.4762C53.4887 40.4762 49.1448 29.1806 42.0647 29.1806C31.238 28.7458 20.4109 28.3091 9.58323 27.8734C9.41633 29.1816 3.44898 29.0561 3.50914 27.9108L0.945056 27.8823C-0.319462 27.3872 -0.310568 13.1179 0.945056 12.7051L3.50914 12.6766C3.44898 11.5313 9.41633 11.4059 9.58323 12.7141C20.4109 12.2784 31.238 11.8417 42.0647 11.4074C49.1448 11.4074 53.4887 0.111828 66.5614 0.111328L83.3925 0.08535C83.3611 0.0648613 83.3323 0.0423698 83.3004 0.0223808C88.3349 -0.148514 91.8967 0.665997 94.4331 2.17907H86.8967C86.8842 2.17807 86.8716 2.17656 86.8591 2.17557L84.9447 2.17907H76.7842V2.19156L66.565 2.20705C61.575 2.21505 57.9044 4.00095 54.092 6.89718C51.0481 9.21027 47.6606 12.6087 43.7414 13.3457C43.2052 13.4462 42.6611 13.4996 42.1144 13.5031Z" fill="white"/>
<path fill-rule="evenodd" clip-rule="evenodd" d="M107.15 0.0224609C136.07 -0.959938 116.482 30.5268 132.126 40.5657C103.206 41.5476 122.793 10.0608 107.15 0.0224609Z" fill="white"/>
<path fill-rule="evenodd" clip-rule="evenodd" d="M83.3005 0.0224609C112.221 -0.959938 92.633 30.5268 108.277 40.5657C79.3568 41.5476 98.944 10.0608 83.3005 0.0224609Z" fill="white"/>
<path fill-rule="evenodd" clip-rule="evenodd" d="M55.3008 32.2417C58.7673 34.8766 62.0419 36.5216 66.5647 36.5251C75.1857 36.5316 83.8066 36.5366 92.4275 36.5366C90.6209 34.1511 89.8158 31.074 89.4056 27.697C51.7714 35.6572 65.8663 20.417 41.9791 21.5423C32.6137 21.9835 21.3471 23.1503 11.3262 23.9888C21.605 24.402 31.8839 24.8173 42.1622 25.2295C47.6106 25.281 51.3461 29.2361 55.3008 32.2417Z" fill="#B30000"/>
<path d="M146.69 41V16.97H152.315V41H146.69ZM149.525 13.01C148.475 13.01 147.605 12.68 146.915 12.02C146.255 11.36 145.925 10.565 145.925 9.635C145.925 8.675 146.255 7.88 146.915 7.25C147.605 6.59 148.475 6.26 149.525 6.26C150.575 6.26 151.43 6.575 152.09 7.205C152.78 7.805 153.125 8.57 153.125 9.5C153.125 10.49 152.795 11.33 152.135 12.02C151.475 12.68 150.605 13.01 149.525 13.01ZM173.333 16.7C175.253 16.7 176.963 17.075 178.463 17.825C179.993 18.575 181.193 19.73 182.063 21.29C182.933 22.82 183.368 24.8 183.368 27.23V41H177.743V27.95C177.743 25.82 177.233 24.23 176.213 23.18C175.223 22.13 173.828 21.605 172.028 21.605C170.708 21.605 169.538 21.875 168.518 22.415C167.498 22.955 166.703 23.765 166.133 24.845C165.593 25.895 165.323 27.23 165.323 28.85V41H159.698V16.97H165.053V23.45L164.108 21.47C164.948 19.94 166.163 18.77 167.753 17.96C169.373 17.12 171.233 16.7 173.333 16.7ZM201.842 41.315C199.172 41.315 196.832 40.79 194.822 39.74C192.842 38.66 191.297 37.19 190.187 35.33C189.107 33.47 188.567 31.355 188.567 28.985C188.567 26.585 189.092 24.47 190.142 22.64C191.222 20.78 192.692 19.325 194.552 18.275C196.442 17.225 198.587 16.7 200.987 16.7C203.327 16.7 205.412 17.21 207.242 18.23C209.072 19.25 210.512 20.69 211.562 22.55C212.612 24.41 213.137 26.6 213.137 29.12C213.137 29.36 213.122 29.63 213.092 29.93C213.092 30.23 213.077 30.515 213.047 30.785H193.022V27.05H210.077L207.872 28.22C207.902 26.84 207.617 25.625 207.017 24.575C206.417 23.525 205.592 22.7 204.542 22.1C203.522 21.5 202.337 21.2 200.987 21.2C199.607 21.2 198.392 21.5 197.342 22.1C196.322 22.7 195.512 23.54 194.912 24.62C194.342 25.67 194.057 26.915 194.057 28.355V29.255C194.057 30.695 194.387 31.97 195.047 33.08C195.707 34.19 196.637 35.045 197.837 35.645C199.037 36.245 200.417 36.545 201.977 36.545C203.327 36.545 204.542 36.335 205.622 35.915C206.702 35.495 207.662 34.835 208.502 33.935L211.517 37.4C210.437 38.66 209.072 39.635 207.422 40.325C205.802 40.985 203.942 41.315 201.842 41.315Z" fill="white"/>
</svg>
