<svg width="20" height="20" viewBox="0 0 20 20" fill="none" xmlns="http://www.w3.org/2000/svg">
<path d="M9.0722 2.80564C10.2756 2.80454 11.4523 3.16038 12.4534 3.82816C13.4546 4.49594 14.2351 5.44564 14.6964 6.55713C15.1577 7.66861 15.279 8.89194 15.0449 10.0724C14.8108 11.2528 14.2318 12.3372 13.3813 13.1886C12.5307 14.0399 11.4468 14.6198 10.2666 14.855C9.0864 15.0902 7.86296 14.97 6.75105 14.5098C5.63914 14.0495 4.68873 13.2698 4.02004 12.2693C3.35135 11.2687 2.99442 10.0924 2.99442 8.88897C3.00172 7.27878 3.64422 5.73653 4.78229 4.59742C5.92036 3.45831 7.46202 2.8144 9.0722 2.80564ZM9.0722 1.66675C7.64378 1.66675 6.24744 2.09032 5.05975 2.88391C3.87206 3.6775 2.94637 4.80546 2.39974 6.12514C1.8531 7.44483 1.71008 8.89698 1.98875 10.298C2.26742 11.6989 2.95527 12.9858 3.96532 13.9959C4.97536 15.0059 6.26224 15.6937 7.66322 15.9724C9.06419 16.2511 10.5163 16.1081 11.836 15.5614C13.1557 15.0148 14.2837 14.0891 15.0773 12.9014C15.8708 11.7137 16.2944 10.3174 16.2944 8.88897C16.2944 6.97352 15.5335 5.13652 14.1791 3.78209C12.8247 2.42766 10.9877 1.66675 9.0722 1.66675Z" fill="white"/>
<path d="M19.4445 18.4945L15.35 14.3723L14.5612 15.1556L18.6556 19.2779C18.707 19.3297 18.7682 19.3708 18.8355 19.399C18.9029 19.4272 18.9751 19.4418 19.0481 19.4421C19.1211 19.4423 19.1934 19.4282 19.2609 19.4005C19.3285 19.3728 19.3899 19.3321 19.4417 19.2806C19.4935 19.2292 19.5347 19.1681 19.5628 19.1007C19.591 19.0334 19.6057 18.9612 19.6059 18.8882C19.6062 18.8152 19.592 18.7428 19.5643 18.6753C19.5367 18.6078 19.4959 18.5463 19.4445 18.4945Z" fill="white"/>
</svg>
