<svg width="362" height="180" viewBox="0 0 362 180" fill="none" xmlns="http://www.w3.org/2000/svg">
<path d="M5.81604 0.81665C5.81604 2.79991 3.52958 5.36652 1.47564 5.67761C0.119266 5.91093 0.00300582 6.0276 0.00300582 7.23312C0.00300582 8.32198 0.15802 8.59419 1.08811 8.78864C2.94828 9.25528 4.30465 10.2664 5.07972 11.7441C6.90114 15.2829 5.04097 19.3661 1.32063 20.0661C0.119266 20.2994 0.00300582 20.455 0.00300582 21.5827C0.00300582 22.7104 0.15802 22.9049 1.24312 23.1382C5.04097 23.9937 7.0174 28.4658 5.04097 31.7324C4.30465 32.899 1.5919 34.6101 0.468049 34.6101C0.196774 34.6101 0.00300582 35.1545 0.00300582 35.9323C0.00300582 37.1378 0.119266 37.2545 1.32063 37.4878C3.87836 37.9933 5.81604 40.3266 5.81604 42.971C5.81604 45.5376 3.83961 48.1041 1.47564 48.5708C0.351788 48.8041 0.196774 48.9986 0.0805129 50.2041C-0.0357477 51.5652 0.00300574 51.6429 1.43689 51.8374C3.83961 52.2262 5.81604 54.754 5.81604 57.4372C5.81604 60.0427 3.21955 62.9982 0.894338 62.9982C0.119267 62.9982 0.00300582 63.1926 0.00300582 64.3592C0.00300582 65.837 -0.268269 65.7203 4.3434 66.4203C8.6063 67.0814 13.1792 69.5313 16.7058 73.0701C19.8061 76.22 20.9687 78.0088 22.4801 82.0532C23.3327 84.3086 23.4489 85.1642 23.4489 89.8307C23.4102 94.575 23.3327 95.3139 22.4026 97.686C19.186 105.814 11.8616 111.919 4.07213 112.969C0.0805129 113.474 0.00300582 113.513 0.00300582 114.758C0.00300582 115.652 0.196774 115.924 1.04935 116.119C2.56074 116.469 4.53717 118.024 5.23474 119.385C6.90114 122.613 4.88595 126.735 1.32063 127.396C0.119266 127.63 0.00300582 127.746 0.00300582 128.952C0.00300582 129.73 0.196774 130.274 0.468049 130.274C0.70057 130.274 1.66941 130.624 2.59949 131.091C7.48244 133.463 6.55236 140.54 1.24312 141.707C0.15802 141.979 0.00300582 142.135 0.00300582 143.34C0.00300582 144.429 0.15802 144.662 0.816831 144.662C3.06454 144.662 5.81604 147.851 5.81604 150.457C5.81604 153.101 3.33581 155.94 1.04935 155.94C0.0805129 155.94 0.00300582 156.057 0.00300582 157.495C0.00300582 158.856 0.119267 159.051 0.894338 159.051C2.13445 159.051 4.14964 160.412 5.04097 161.851C6.93989 165.001 4.96346 169.628 1.47564 170.173C0.0805129 170.406 0.00300582 170.484 0.00300582 171.923C0.00300582 173.362 0.0805129 173.439 1.16561 173.439C2.83202 173.439 4.92471 175.423 5.54476 177.678L6.08732 179.467L8.95508 179.7C12.7529 180.011 348.979 180.128 352.738 179.817L355.644 179.545L356.109 177.795C356.652 175.695 358.396 173.945 360.295 173.595C361.767 173.323 362.155 172.739 361.806 171.301C361.612 170.562 361.302 170.328 360.489 170.328C359.869 170.328 358.822 169.823 358.008 169.123C354.443 166.206 355.644 160.918 360.217 159.323C361.535 158.856 361.767 158.623 361.767 157.651C361.767 156.679 361.535 156.445 360.217 156.018C355.606 154.501 354.366 149.212 357.931 146.257C358.706 145.635 359.946 145.012 360.682 144.857C361.884 144.624 362 144.507 361.884 143.379C361.767 142.329 361.574 142.096 360.295 141.824C358.396 141.357 356.73 139.724 356.109 137.74C355.218 134.746 357.311 131.363 360.45 130.702C361.651 130.468 361.767 130.313 361.767 129.146C361.767 127.902 361.651 127.785 359.946 127.28C354.327 125.646 354.676 117.869 360.411 116.391C361.535 116.08 361.806 115.847 361.884 114.874L362 113.747L358.086 113.047C352.467 112.113 349.095 110.363 345.103 106.358C341.538 102.819 339.833 99.9415 338.709 95.4305C336.5 86.7586 339.562 77.3866 346.46 71.6701C350.064 68.6758 353.746 67.0814 358.667 66.3425L361.767 65.8759V64.5537C361.767 63.3481 361.651 63.1926 360.45 62.9593C357.737 62.376 355.954 60.1594 355.993 57.3205C356.032 54.5984 357.892 52.5762 361.302 51.5652C361.729 51.4096 361.961 50.9818 361.961 50.2041C361.961 49.193 361.806 48.9986 360.644 48.8041C358.745 48.4153 356.613 46.5098 356.148 44.682C355.296 41.571 357.427 38.11 360.605 37.4878C361.845 37.2545 361.961 37.1378 361.961 35.9712C361.961 34.8045 361.845 34.6879 360.605 34.4545C358.706 34.1046 356.652 32.1602 356.148 30.2935C355.296 27.1436 357.078 24.2271 360.45 23.3326C361.884 22.9438 362 22.8271 361.884 21.6994C361.767 20.6494 361.574 20.4161 360.411 20.105C357.195 19.2883 355.334 16.3329 356.109 13.2996C356.652 11.2775 358.396 9.5275 360.295 9.06085C361.651 8.74974 361.767 8.59419 361.767 7.38867C361.767 6.22205 361.651 6.0276 360.527 5.79428C358.047 5.28874 355.761 2.91658 355.761 0.85553V0H180.788H5.81604V0.81665ZM340.957 35.9712L341.034 57.3594L339.368 58.4094C336.733 60.0816 331.966 65.0592 329.641 68.5591C322.743 78.981 321.386 91.814 325.92 103.908C327.974 109.469 333.129 116.236 338.167 120.047L341.034 122.185V143.535V164.884H180.788H20.5424V143.535V122.224L23.4489 119.969C32.246 113.241 37.6715 102.78 38.2528 91.5807C38.524 86.2919 37.9815 82.4809 36.3151 77.4644C33.9124 70.2313 29.9208 64.5148 23.914 59.6927L20.5424 57.0094V35.9323C20.5424 24.3826 20.6587 14.7773 20.8137 14.6607C20.9299 14.5051 93.0116 14.4274 180.943 14.4662L340.841 14.5829L340.957 35.9712Z" fill="#AA3939"/>
<path d="M22.2711 17.629C21.9613 20.1113 21.9225 50.6749 22.1937 53.8166L22.4648 56.5317L24.5952 58.0831C25.7572 58.9364 27.8489 60.7982 29.1659 62.2332C45.1245 79.1441 43.2652 106.139 25.1762 120.413C23.743 121.537 22.4648 122.623 22.3099 122.856C22.1549 123.05 22 132.204 22 143.103V163H180.772H339.506L339.739 154.196C340.087 143.18 340.087 136.16 339.739 128.441L339.506 122.391L338.422 121.731C336.175 120.413 331.023 115.099 328.97 111.996C326.181 107.846 324.361 103.812 323.083 99.119C321.688 93.8829 321.611 85.7765 322.928 80.7731C324.555 74.5673 326.414 70.4947 329.629 66.1507C331.682 63.3581 335.904 59.0916 337.957 57.734C339.545 56.6868 339.584 56.6092 339.816 53.8942C339.932 52.3428 340.01 43.228 339.932 33.6478L339.816 16.1939C339.816 16.1939 243.119 16.1154 181.16 16.0776C119.186 16.0397 22.4648 16 22.4648 16L22.2711 17.629Z" fill="#AA3939"/>
<path d="M90.0894 87.1191H89.6167C89.5022 86.7897 89.316 86.4173 89.0582 86.002C88.8147 85.5866 88.4852 85.1999 88.0699 84.8418C87.6688 84.4694 87.1747 84.1615 86.5874 83.918C86.0145 83.6745 85.3342 83.5527 84.5464 83.5527C83.8446 83.5527 83.2216 83.6602 82.6773 83.875C82.133 84.0898 81.6747 84.3906 81.3023 84.7773C80.9442 85.1641 80.6721 85.6224 80.4859 86.1523C80.2997 86.6823 80.2066 87.2695 80.2066 87.9141C80.2066 88.9453 80.493 89.9336 81.066 90.8789C81.6532 91.8099 82.3837 92.7337 83.2574 93.6504C84.1311 94.5671 85.0764 95.4837 86.0933 96.4004C87.1102 97.3171 88.0555 98.2695 88.9292 99.2578C89.8029 100.246 90.5263 101.285 91.0992 102.373C91.6864 103.447 91.98 104.607 91.98 105.854C91.98 106.785 91.8153 107.723 91.4859 108.668C91.1708 109.599 90.6766 110.437 90.0035 111.182C89.3303 111.926 88.4638 112.535 87.4039 113.008C86.344 113.466 85.0835 113.695 83.6226 113.695C82.8062 113.695 82.0256 113.617 81.2808 113.459C80.5503 113.316 79.87 113.137 79.2398 112.922C78.6239 112.693 78.0653 112.449 77.564 112.191C77.077 111.934 76.676 111.697 76.3609 111.482L76.855 106.734H77.3921C77.5497 107.408 77.8075 108.052 78.1656 108.668C78.5236 109.27 78.9605 109.807 79.4761 110.279C80.0061 110.738 80.6076 111.11 81.2808 111.396C81.954 111.669 82.6916 111.805 83.4937 111.805C84.2242 111.805 84.8759 111.697 85.4488 111.482C86.036 111.253 86.5373 110.945 86.9527 110.559C87.368 110.158 87.6832 109.685 87.898 109.141C88.1272 108.596 88.2417 108.002 88.2417 107.357C88.2417 106.455 88.077 105.624 87.7476 104.865C87.4182 104.092 86.9813 103.361 86.4371 102.674C85.9071 101.986 85.2984 101.32 84.6109 100.676C83.9377 100.031 83.243 99.3867 82.5269 98.7422C81.8108 98.0833 81.1089 97.4102 80.4214 96.7227C79.7483 96.0352 79.1395 95.3047 78.5953 94.5312C78.0653 93.7435 77.6356 92.9056 77.3062 92.0176C76.9768 91.1152 76.8121 90.127 76.8121 89.0527C76.8121 87.9212 77.0269 86.9043 77.4566 86.002C77.9006 85.0853 78.4807 84.3047 79.1968 83.6602C79.9273 83.0156 80.7509 82.5215 81.6675 82.1777C82.5842 81.834 83.5295 81.6621 84.5035 81.6621C85.2196 81.6621 85.8785 81.7194 86.48 81.834C87.0816 81.9486 87.6187 82.0846 88.0914 82.2422C88.5783 82.3997 89.0009 82.5573 89.3589 82.7148C89.717 82.8724 90.0106 83.0013 90.2398 83.1016L90.0894 87.1191ZM120.778 113.029V112.943C120.806 112.872 120.828 112.764 120.842 112.621C120.856 112.478 120.864 112.349 120.864 112.234C120.864 111.79 120.799 111.303 120.67 110.773C120.556 110.229 120.327 109.556 119.983 108.754L117.383 102.91C116.581 102.882 115.514 102.867 114.182 102.867C112.85 102.867 111.41 102.867 109.864 102.867C108.732 102.867 107.636 102.867 106.577 102.867C105.531 102.867 104.586 102.882 103.741 102.91L101.27 108.582C101.055 109.112 100.826 109.692 100.582 110.322C100.339 110.952 100.217 111.59 100.217 112.234C100.217 112.421 100.231 112.578 100.26 112.707C100.289 112.822 100.317 112.9 100.346 112.943V113.029H95.9632V112.943C96.221 112.671 96.5433 112.191 96.93 111.504C97.3167 110.802 97.7393 109.928 98.1976 108.883L110.508 81.5762H112.227L123.893 107.83C124.165 108.446 124.444 109.048 124.731 109.635C125.032 110.208 125.311 110.723 125.569 111.182C125.827 111.64 126.056 112.027 126.256 112.342C126.457 112.657 126.593 112.857 126.664 112.943V113.029H120.778ZM106.856 101.02C107.687 101.02 108.539 101.02 109.412 101.02C110.286 101.005 111.138 100.998 111.969 100.998C112.814 100.984 113.623 100.977 114.397 100.977C115.17 100.962 115.872 100.948 116.502 100.934L110.465 87.291L104.535 101.02H106.856ZM131.271 82.2207V82.3066C131.242 82.3783 131.221 82.4857 131.206 82.6289C131.192 82.7721 131.185 82.901 131.185 83.0156C131.185 83.4596 131.242 83.9538 131.357 84.498C131.485 85.028 131.722 85.694 132.066 86.4961L141.583 107.959L150.778 86.668C150.993 86.138 151.222 85.5579 151.466 84.9277C151.709 84.2975 151.831 83.6602 151.831 83.0156C151.831 82.8438 151.817 82.7005 151.788 82.5859C151.76 82.457 151.731 82.3639 151.702 82.3066V82.2207H156.107V82.3066C155.834 82.5788 155.505 83.0658 155.118 83.7676C154.732 84.4694 154.309 85.3359 153.851 86.3672L141.54 113.695H139.821L128.155 87.4199C127.883 86.804 127.597 86.2096 127.296 85.6367C127.01 85.0638 126.737 84.5482 126.48 84.0898C126.222 83.6172 125.993 83.2233 125.792 82.9082C125.592 82.5931 125.456 82.3926 125.384 82.3066V82.2207H131.271ZM160.498 82.2207C162.288 82.2207 164.064 82.2135 165.826 82.1992C167.602 82.1849 169.228 82.1706 170.703 82.1562C172.178 82.1276 173.439 82.0918 174.484 82.0488C175.53 82.0059 176.239 81.9486 176.611 81.877L175.559 84.7344C175.086 84.6055 174.534 84.4909 173.904 84.3906C173.36 84.3047 172.694 84.2259 171.906 84.1543C171.133 84.0684 170.238 84.0254 169.221 84.0254C168.877 84.0254 168.462 84.0397 167.975 84.0684C167.502 84.0827 167.044 84.1042 166.6 84.1328C166.084 84.1615 165.561 84.1901 165.031 84.2188V95.9492C166.506 95.9349 167.838 95.8919 169.027 95.8203C170.216 95.7487 171.226 95.6771 172.057 95.6055C173.031 95.5195 173.89 95.4193 174.635 95.3047L173.969 98.4199C172.98 98.291 171.971 98.1693 170.939 98.0547C170.051 97.9544 169.085 97.8685 168.039 97.7969C166.993 97.7109 165.991 97.668 165.031 97.668V111.139C166.721 111.139 168.275 111.067 169.693 110.924C171.111 110.781 172.35 110.616 173.41 110.43C174.642 110.229 175.766 109.993 176.783 109.721L176.16 113.201C175.988 113.187 175.73 113.173 175.387 113.158C175.043 113.144 174.656 113.13 174.227 113.115C173.811 113.101 173.367 113.087 172.894 113.072C172.436 113.072 171.999 113.065 171.584 113.051C171.169 113.051 170.796 113.044 170.467 113.029C170.152 113.029 169.922 113.029 169.779 113.029H160.498V112.943C160.584 112.643 160.663 112.27 160.734 111.826C160.82 111.382 160.892 110.831 160.949 110.172C161.006 109.513 161.049 108.732 161.078 107.83C161.107 106.913 161.121 105.846 161.121 104.629V90.6426C161.121 89.4251 161.107 88.3652 161.078 87.4629C161.049 86.5462 161.006 85.7585 160.949 85.0996C160.892 84.4264 160.82 83.8678 160.734 83.4238C160.663 82.9798 160.584 82.6074 160.498 82.3066V82.2207ZM200.584 112.943C200.669 112.643 200.748 112.27 200.82 111.826C200.906 111.382 200.977 110.831 201.035 110.172C201.092 109.513 201.135 108.732 201.164 107.83C201.192 106.913 201.207 105.846 201.207 104.629V90.6426C201.207 89.4251 201.121 88.4583 200.949 87.7422C200.777 87.026 200.569 86.4746 200.326 86.0879C200.097 85.7012 199.853 85.4219 199.595 85.25C199.352 85.0781 199.144 84.9206 198.972 84.7773V84.6914L205.568 82.2207V82.3066C205.482 82.6074 205.396 82.9798 205.31 83.4238C205.238 83.8678 205.174 84.4264 205.117 85.0996C205.059 85.7585 205.016 86.5462 204.988 87.4629C204.959 88.3652 204.945 89.4251 204.945 90.6426V104.629C204.945 105.846 204.959 106.913 204.988 107.83C205.016 108.732 205.059 109.513 205.117 110.172C205.174 110.831 205.238 111.382 205.31 111.826C205.396 112.27 205.482 112.643 205.568 112.943V113.029H200.584V112.943ZM216.877 97.7969C216.877 98.9714 217.028 100.103 217.328 101.191C217.629 102.28 218.045 103.304 218.575 104.264C219.119 105.209 219.771 106.076 220.53 106.863C221.303 107.651 222.155 108.324 223.086 108.883C224.032 109.441 225.041 109.878 226.116 110.193C227.19 110.494 228.314 110.645 229.489 110.645C230.663 110.645 231.787 110.494 232.862 110.193C233.95 109.878 234.96 109.441 235.891 108.883C236.836 108.324 237.688 107.651 238.448 106.863C239.207 106.076 239.858 105.209 240.403 104.264C240.947 103.304 241.369 102.28 241.67 101.191C241.971 100.103 242.121 98.9714 242.121 97.7969C242.121 96.0352 241.792 94.3809 241.133 92.834C240.474 91.2728 239.572 89.9121 238.426 88.752C237.295 87.5775 235.963 86.6536 234.43 85.9805C232.897 85.293 231.25 84.9492 229.489 84.9492C227.727 84.9492 226.08 85.293 224.547 85.9805C223.015 86.6536 221.675 87.5775 220.53 88.752C219.398 89.9121 218.503 91.2728 217.844 92.834C217.2 94.3809 216.877 96.0352 216.877 97.7969ZM213.526 97.7109C213.526 96.25 213.712 94.8392 214.084 93.4785C214.471 92.1178 215.008 90.8503 215.696 89.6758C216.397 88.487 217.235 87.4056 218.209 86.4316C219.183 85.4577 220.257 84.627 221.432 83.9395C222.621 83.2376 223.896 82.7005 225.256 82.3281C226.617 81.9414 228.028 81.748 229.489 81.748C230.95 81.748 232.36 81.9414 233.721 82.3281C235.082 82.7005 236.356 83.2376 237.545 83.9395C238.734 84.627 239.815 85.4577 240.789 86.4316C241.763 87.4056 242.594 88.487 243.282 89.6758C243.983 90.8503 244.521 92.1178 244.893 93.4785C245.28 94.8392 245.473 96.25 245.473 97.7109C245.473 99.1862 245.28 100.604 244.893 101.965C244.521 103.311 243.983 104.579 243.282 105.768C242.594 106.956 241.763 108.038 240.789 109.012C239.815 109.986 238.734 110.824 237.545 111.525C236.356 112.213 235.082 112.743 233.721 113.115C232.36 113.502 230.95 113.695 229.489 113.695C228.028 113.695 226.617 113.502 225.256 113.115C223.896 112.743 222.621 112.213 221.432 111.525C220.257 110.824 219.183 109.986 218.209 109.012C217.235 108.038 216.397 106.956 215.696 105.768C215.008 104.579 214.471 103.311 214.084 101.965C213.712 100.604 213.526 99.1862 213.526 97.7109ZM254.247 89.8906C254.247 90.6641 254.39 91.3874 254.677 92.0605C254.963 92.7337 255.35 93.3281 255.837 93.8438C256.338 94.3451 256.918 94.7461 257.577 95.0469C258.25 95.3333 258.974 95.4766 259.747 95.4766C260.535 95.4766 261.258 95.3333 261.917 95.0469C262.59 94.7461 263.17 94.3451 263.657 93.8438C264.159 93.3281 264.545 92.7337 264.818 92.0605C265.104 91.3874 265.247 90.6641 265.247 89.8906C265.247 89.1029 265.104 88.3652 264.818 87.6777C264.545 86.9902 264.159 86.3887 263.657 85.873C263.17 85.3574 262.59 84.9564 261.917 84.6699C261.258 84.3691 260.535 84.2188 259.747 84.2188C258.974 84.2188 258.25 84.3691 257.577 84.6699C256.918 84.9564 256.338 85.3574 255.837 85.873C255.35 86.3887 254.963 86.9902 254.677 87.6777C254.39 88.3652 254.247 89.1029 254.247 89.8906ZM251.648 89.8477C251.648 88.7305 251.862 87.6777 252.292 86.6895C252.722 85.7012 253.302 84.8418 254.032 84.1113C254.763 83.3665 255.615 82.7793 256.589 82.3496C257.577 81.9199 258.63 81.7051 259.747 81.7051C260.864 81.7051 261.917 81.9199 262.905 82.3496C263.894 82.7793 264.753 83.3665 265.484 84.1113C266.228 84.8418 266.816 85.7012 267.245 86.6895C267.675 87.6777 267.89 88.7305 267.89 89.8477C267.89 90.9648 267.675 92.0176 267.245 93.0059C266.816 93.9798 266.228 94.832 265.484 95.5625C264.753 96.293 263.894 96.873 262.905 97.3027C261.917 97.7324 260.864 97.9473 259.747 97.9473C258.63 97.9473 257.577 97.7324 256.589 97.3027C255.615 96.873 254.763 96.293 254.032 95.5625C253.302 94.832 252.722 93.9798 252.292 93.0059C251.862 92.0176 251.648 90.9648 251.648 89.8477ZM277.837 81.4473L279.599 82.5859L258.909 114.168L257.148 113.029L277.837 81.4473ZM271.843 105.639C271.843 106.412 271.986 107.135 272.273 107.809C272.559 108.482 272.946 109.076 273.433 109.592C273.934 110.093 274.514 110.494 275.173 110.795C275.846 111.081 276.569 111.225 277.343 111.225C278.131 111.225 278.854 111.081 279.513 110.795C280.186 110.494 280.766 110.093 281.253 109.592C281.754 109.076 282.141 108.482 282.413 107.809C282.7 107.135 282.843 106.412 282.843 105.639C282.843 104.865 282.7 104.135 282.413 103.447C282.141 102.76 281.754 102.158 281.253 101.643C280.766 101.127 280.186 100.719 279.513 100.418C278.854 100.117 278.131 99.9668 277.343 99.9668C276.569 99.9668 275.846 100.117 275.173 100.418C274.514 100.719 273.934 101.127 273.433 101.643C272.946 102.158 272.559 102.76 272.273 103.447C271.986 104.135 271.843 104.865 271.843 105.639ZM269.265 105.596C269.265 104.479 269.48 103.426 269.909 102.438C270.339 101.449 270.919 100.59 271.65 99.8594C272.38 99.1146 273.232 98.5273 274.206 98.0977C275.194 97.668 276.24 97.4531 277.343 97.4531C278.46 97.4531 279.513 97.668 280.501 98.0977C281.489 98.5273 282.349 99.1146 283.079 99.8594C283.824 100.59 284.411 101.449 284.841 102.438C285.271 103.426 285.485 104.479 285.485 105.596C285.485 106.713 285.271 107.766 284.841 108.754C284.411 109.728 283.824 110.58 283.079 111.311C282.349 112.041 281.489 112.621 280.501 113.051C279.513 113.48 278.46 113.695 277.343 113.695C276.24 113.695 275.194 113.48 274.206 113.051C273.232 112.621 272.38 112.041 271.65 111.311C270.919 110.58 270.339 109.728 269.909 108.754C269.48 107.766 269.265 106.713 269.265 105.596Z" fill="white"/>
<path d="M118.981 61.1514C118.981 61.2301 118.971 61.3125 118.949 61.3984C118.935 61.4844 118.896 61.556 118.831 61.6133C118.509 61.8568 118.158 62.0824 117.778 62.29C117.406 62.4906 117.001 62.666 116.564 62.8164C116.128 62.9668 115.655 63.0814 115.146 63.1602C114.645 63.2461 114.104 63.2891 113.524 63.2891C112.221 63.2891 111.032 63.0993 109.958 62.7197C108.884 62.333 107.96 61.7887 107.187 61.0869C106.42 60.3851 105.826 59.5436 105.403 58.5625C104.981 57.5742 104.77 56.4785 104.77 55.2754C104.77 54.5951 104.855 53.9255 105.027 53.2666C105.206 52.6077 105.464 51.9811 105.801 51.3867C106.137 50.7923 106.553 50.248 107.047 49.7539C107.541 49.2526 108.103 48.8193 108.733 48.4541C109.371 48.0889 110.069 47.806 110.828 47.6055C111.594 47.3978 112.422 47.2939 113.31 47.2939C113.653 47.2939 114.004 47.3118 114.362 47.3477C114.72 47.3763 115.075 47.4229 115.426 47.4873C115.777 47.5446 116.113 47.6162 116.436 47.7021C116.765 47.7881 117.076 47.8848 117.37 47.9922L118.101 49.9795L118.015 50.0225C117.735 49.7718 117.413 49.5391 117.048 49.3242C116.683 49.1094 116.292 48.9232 115.877 48.7656C115.462 48.6081 115.025 48.4863 114.566 48.4004C114.115 48.3073 113.657 48.2607 113.191 48.2607C112.289 48.2607 111.462 48.404 110.71 48.6904C109.958 48.9697 109.31 49.3779 108.766 49.915C108.229 50.4521 107.81 51.111 107.509 51.8916C107.208 52.6722 107.058 53.5602 107.058 54.5557C107.058 55.6514 107.201 56.6683 107.487 57.6064C107.774 58.5446 108.2 59.3574 108.766 60.0449C109.331 60.7324 110.037 61.2731 110.882 61.667C111.734 62.0537 112.726 62.2471 113.857 62.2471C114.359 62.2471 114.806 62.2077 115.2 62.1289C115.594 62.0501 115.927 61.9535 116.199 61.8389C116.471 61.7171 116.675 61.5882 116.812 61.4521C116.955 61.3089 117.026 61.18 117.026 61.0654V60.6465C117.026 60.1452 117.019 59.7119 117.005 59.3467C116.991 58.9814 116.969 58.6663 116.94 58.4014C116.912 58.1292 116.88 57.8965 116.844 57.7031C116.808 57.5098 116.765 57.3307 116.715 57.166V57.123H119.293V57.166C119.25 57.3164 119.207 57.4954 119.164 57.7031C119.128 57.9036 119.096 58.1436 119.067 58.4229C119.039 58.7021 119.017 59.0316 119.003 59.4111C118.989 59.7835 118.981 60.2168 118.981 60.7109V61.1514ZM122.95 62.9131C122.993 62.7627 123.032 62.5765 123.068 62.3545C123.104 62.1325 123.136 61.8568 123.164 61.5273C123.193 61.1979 123.215 60.8076 123.229 60.3564C123.243 59.8981 123.25 59.3646 123.25 58.7559V51.7627C123.25 51.154 123.243 50.624 123.229 50.1729C123.215 49.7145 123.193 49.3206 123.164 48.9912C123.136 48.6546 123.104 48.3753 123.068 48.1533C123.032 47.9313 122.993 47.7451 122.95 47.5947V47.5518H125.517V47.5947C125.474 47.7451 125.431 47.9313 125.388 48.1533C125.352 48.3753 125.32 48.6546 125.291 48.9912C125.27 49.3206 125.248 49.7145 125.227 50.1729C125.213 50.624 125.205 51.154 125.205 51.7627V58.7559C125.205 59.3646 125.213 59.8981 125.227 60.3564C125.248 60.8076 125.27 61.1979 125.291 61.5273C125.32 61.8568 125.352 62.1325 125.388 62.3545C125.431 62.5765 125.474 62.7627 125.517 62.9131V62.9561H122.95V62.9131ZM132.063 58.7559C132.063 59.3646 132.07 59.8981 132.085 60.3564C132.106 60.8076 132.128 61.1979 132.149 61.5273C132.178 61.8568 132.21 62.1325 132.246 62.3545C132.289 62.5765 132.332 62.7627 132.375 62.9131V62.9561H129.797V62.9131C129.84 62.7627 129.879 62.5765 129.915 62.3545C129.958 62.1325 129.994 61.8568 130.022 61.5273C130.051 61.1979 130.072 60.8076 130.087 60.3564C130.101 59.8981 130.108 59.3646 130.108 58.7559V51.7627C130.108 51.154 130.101 50.624 130.087 50.1729C130.072 49.7145 130.051 49.3206 130.022 48.9912C129.994 48.6546 129.958 48.3753 129.915 48.1533C129.879 47.9313 129.84 47.7451 129.797 47.5947V47.5518C130.391 47.5518 130.993 47.5518 131.601 47.5518C132.21 47.5446 132.801 47.541 133.374 47.541C133.947 47.5339 134.491 47.5267 135.007 47.5195C135.522 47.5052 135.988 47.4945 136.403 47.4873C136.818 47.473 137.169 47.4587 137.456 47.4443C137.742 47.4229 137.946 47.4014 138.068 47.3799L137.542 48.8086C137.305 48.7441 137.03 48.6868 136.715 48.6367C136.443 48.5938 136.11 48.5544 135.716 48.5186C135.329 48.4756 134.881 48.4541 134.373 48.4541C134.201 48.4541 133.986 48.4613 133.728 48.4756C133.471 48.4827 133.216 48.4935 132.966 48.5078C132.679 48.5221 132.378 48.5365 132.063 48.5508V53.9756C132.801 53.9684 133.478 53.9469 134.094 53.9111C134.709 53.8753 135.239 53.8395 135.683 53.8037C136.199 53.7607 136.665 53.7106 137.08 53.6533L136.758 55.2109C136.221 55.1465 135.676 55.0856 135.125 55.0283C134.652 54.9782 134.144 54.9352 133.599 54.8994C133.055 54.8564 132.543 54.835 132.063 54.835V58.7559ZM145.195 48.4971C144.349 48.4971 143.587 48.5365 142.906 48.6152C142.226 48.6868 141.639 48.7656 141.145 48.8516C140.572 48.959 140.06 49.0771 139.609 49.2061L139.92 47.4658C140.006 47.473 140.135 47.4801 140.307 47.4873C140.479 47.4945 140.668 47.5016 140.876 47.5088C141.091 47.516 141.313 47.5231 141.542 47.5303C141.779 47.5303 142.001 47.5339 142.208 47.541C142.416 47.541 142.599 47.5446 142.756 47.5518C142.921 47.5518 143.039 47.5518 143.111 47.5518H149.244C149.316 47.5518 149.431 47.5518 149.588 47.5518C149.753 47.5446 149.939 47.541 150.147 47.541C150.354 47.5339 150.573 47.5303 150.802 47.5303C151.038 47.5231 151.26 47.516 151.468 47.5088C151.683 47.5016 151.876 47.4945 152.048 47.4873C152.22 47.4801 152.349 47.473 152.435 47.4658L152.746 49.2061C152.288 49.0771 151.772 48.959 151.199 48.8516C150.705 48.7656 150.118 48.6868 149.438 48.6152C148.757 48.5365 147.995 48.4971 147.15 48.4971V58.7559C147.15 59.3646 147.157 59.8981 147.171 60.3564C147.193 60.8076 147.214 61.1979 147.236 61.5273C147.264 61.8568 147.296 62.1325 147.332 62.3545C147.375 62.5765 147.418 62.7627 147.461 62.9131V62.9561H144.894V62.9131C144.937 62.7627 144.976 62.5765 145.012 62.3545C145.048 62.1325 145.08 61.8568 145.109 61.5273C145.137 61.1979 145.159 60.8076 145.173 60.3564C145.187 59.8981 145.195 59.3646 145.195 58.7559V48.4971ZM175.55 49.915L175.453 49.958C174.895 49.4424 174.221 49.0306 173.434 48.7227C172.653 48.4147 171.794 48.2607 170.855 48.2607C169.953 48.2607 169.126 48.404 168.374 48.6904C167.622 48.9697 166.974 49.3779 166.43 49.915C165.893 50.4521 165.474 51.111 165.173 51.8916C164.872 52.6722 164.722 53.5602 164.722 54.5557C164.722 55.6514 164.865 56.6755 165.151 57.6279C165.438 58.5732 165.864 59.3932 166.43 60.0879C166.995 60.7826 167.701 61.3304 168.546 61.7314C169.398 62.1253 170.39 62.3223 171.521 62.3223C171.93 62.3223 172.338 62.2793 172.746 62.1934C173.154 62.1074 173.545 61.9821 173.917 61.8174C174.297 61.6455 174.651 61.4414 174.98 61.2051C175.317 60.9616 175.621 60.6859 175.894 60.3779L176.012 60.4531L175.152 62.6445C174.615 62.8522 174.021 63.0098 173.369 63.1172C172.725 63.2318 172.073 63.2891 171.414 63.2891C170.089 63.2891 168.875 63.0993 167.772 62.7197C166.677 62.333 165.731 61.7887 164.937 61.0869C164.149 60.3851 163.533 59.5436 163.089 58.5625C162.652 57.5742 162.434 56.4785 162.434 55.2754C162.434 54.5951 162.52 53.9255 162.691 53.2666C162.87 52.6077 163.128 51.9811 163.465 51.3867C163.801 50.7923 164.217 50.248 164.711 49.7539C165.205 49.2526 165.767 48.8193 166.397 48.4541C167.035 48.0889 167.733 47.806 168.492 47.6055C169.258 47.3978 170.086 47.2939 170.974 47.2939C172.356 47.2939 173.638 47.5052 174.819 47.9277L175.55 49.915ZM186.103 47.2939C187.299 47.2939 188.402 47.4909 189.412 47.8848C190.428 48.2715 191.306 48.8193 192.043 49.5283C192.781 50.2301 193.357 51.0752 193.773 52.0635C194.188 53.0518 194.396 54.1439 194.396 55.3398C194.396 56.0202 194.317 56.6898 194.16 57.3486C194.002 58.0075 193.769 58.6305 193.461 59.2178C193.161 59.805 192.788 60.3493 192.344 60.8506C191.9 61.3447 191.392 61.7744 190.819 62.1396C190.253 62.4977 189.626 62.777 188.939 62.9775C188.251 63.1852 187.51 63.2891 186.715 63.2891C185.519 63.2891 184.413 63.0993 183.396 62.7197C182.386 62.333 181.512 61.7887 180.775 61.0869C180.037 60.3851 179.461 59.5436 179.045 58.5625C178.63 57.5742 178.422 56.4785 178.422 55.2754C178.422 54.5951 178.501 53.9255 178.659 53.2666C178.816 52.6077 179.045 51.9811 179.346 51.3867C179.654 50.7923 180.026 50.248 180.463 49.7539C180.907 49.2526 181.412 48.8193 181.978 48.4541C182.551 48.0889 183.181 47.806 183.869 47.6055C184.563 47.3978 185.308 47.2939 186.103 47.2939ZM186.715 62.3223C187.51 62.3223 188.237 62.179 188.896 61.8926C189.555 61.6061 190.121 61.1908 190.593 60.6465C191.073 60.1022 191.445 59.4398 191.71 58.6592C191.975 57.8714 192.108 56.9798 192.108 55.9844C192.108 54.8815 191.979 53.861 191.721 52.9229C191.47 51.9775 191.094 51.1611 190.593 50.4736C190.092 49.779 189.465 49.2383 188.713 48.8516C187.968 48.4577 187.098 48.2607 186.103 48.2607C185.308 48.2607 184.581 48.404 183.922 48.6904C183.263 48.9697 182.694 49.3779 182.214 49.915C181.742 50.4521 181.373 51.111 181.108 51.8916C180.843 52.6722 180.71 53.5602 180.71 54.5557C180.71 55.6514 180.836 56.6755 181.086 57.6279C181.337 58.5732 181.713 59.3932 182.214 60.0879C182.716 60.7826 183.342 61.3304 184.094 61.7314C184.846 62.1253 185.72 62.3223 186.715 62.3223ZM208.945 51.7627C208.945 51.154 208.938 50.624 208.924 50.1729C208.909 49.7145 208.888 49.3206 208.859 48.9912C208.831 48.6546 208.798 48.3753 208.762 48.1533C208.727 47.9313 208.687 47.7451 208.644 47.5947V47.5518H210.556V47.5947C210.513 47.7451 210.471 47.9313 210.428 48.1533C210.392 48.3753 210.36 48.6546 210.331 48.9912C210.309 49.3206 210.288 49.7145 210.266 50.1729C210.252 50.624 210.245 51.154 210.245 51.7627V57.5635C210.245 58.5876 210.098 59.4613 209.804 60.1846C209.511 60.9079 209.103 61.5023 208.58 61.9678C208.057 62.4261 207.43 62.7591 206.7 62.9668C205.97 63.1816 205.171 63.2891 204.304 63.2891C203.438 63.2891 202.629 63.1888 201.877 62.9883C201.132 62.7878 200.48 62.4655 199.922 62.0215C199.37 61.5703 198.937 60.9902 198.622 60.2812C198.307 59.5651 198.149 58.695 198.149 57.6709V51.7627C198.149 51.154 198.142 50.624 198.128 50.1729C198.113 49.7145 198.092 49.3206 198.063 48.9912C198.035 48.6546 197.999 48.3753 197.956 48.1533C197.92 47.9313 197.881 47.7451 197.838 47.5947V47.5518H200.416V47.5947C200.373 47.7451 200.33 47.9313 200.287 48.1533C200.251 48.3753 200.219 48.6546 200.19 48.9912C200.162 49.3206 200.14 49.7145 200.126 50.1729C200.111 50.624 200.104 51.154 200.104 51.7627V57.7891C200.104 58.6413 200.23 59.3467 200.48 59.9053C200.738 60.4567 201.075 60.8971 201.49 61.2266C201.905 61.5488 202.378 61.7744 202.908 61.9033C203.438 62.0322 203.979 62.0967 204.53 62.0967C205.082 62.0967 205.622 62.0322 206.152 61.9033C206.682 61.7744 207.151 61.5488 207.559 61.2266C207.975 60.8971 208.308 60.4567 208.558 59.9053C208.816 59.3467 208.945 58.6413 208.945 57.7891V51.7627ZM216.909 56.1348C217.611 56.2637 218.252 56.278 218.832 56.1777C219.419 56.0703 219.921 55.8483 220.336 55.5117C220.759 55.168 221.085 54.7061 221.314 54.126C221.55 53.5459 221.668 52.8369 221.668 51.999C221.668 51.4189 221.607 50.8926 221.486 50.4199C221.364 49.9401 221.181 49.5355 220.938 49.2061C220.701 48.8695 220.401 48.6117 220.035 48.4326C219.67 48.2464 219.244 48.1533 218.757 48.1533C218.449 48.1533 218.181 48.1676 217.951 48.1963C217.722 48.2178 217.529 48.2428 217.371 48.2715C217.185 48.3073 217.031 48.3467 216.909 48.3896V56.1348ZM214.643 47.5518C214.786 47.5661 214.936 47.5804 215.094 47.5947C215.23 47.609 215.38 47.6198 215.545 47.627C215.717 47.627 215.892 47.627 216.071 47.627C216.351 47.627 216.727 47.5947 217.199 47.5303C217.679 47.4587 218.288 47.4229 219.026 47.4229C219.713 47.4229 220.347 47.5231 220.927 47.7236C221.514 47.9242 222.023 48.2178 222.452 48.6045C222.882 48.9912 223.215 49.4639 223.451 50.0225C223.695 50.5739 223.817 51.2041 223.817 51.9131C223.817 52.8656 223.627 53.6891 223.247 54.3838C222.868 55.0785 222.359 55.6406 221.722 56.0703C221.085 56.5 220.35 56.7936 219.52 56.9512C218.689 57.1016 217.819 57.1087 216.909 56.9727V58.7559C216.909 59.3646 216.917 59.8981 216.931 60.3564C216.952 60.8076 216.974 61.1979 216.995 61.5273C217.024 61.8568 217.056 62.1325 217.092 62.3545C217.135 62.5765 217.178 62.7627 217.221 62.9131V62.9561H214.643V62.9131C214.686 62.7627 214.725 62.5765 214.761 62.3545C214.804 62.1325 214.84 61.8568 214.868 61.5273C214.897 61.1979 214.918 60.8076 214.933 60.3564C214.947 59.8981 214.954 59.3646 214.954 58.7559V51.7627C214.954 51.154 214.947 50.624 214.933 50.1729C214.918 49.7145 214.897 49.3206 214.868 48.9912C214.84 48.6546 214.804 48.3753 214.761 48.1533C214.725 47.9313 214.686 47.7451 214.643 47.5947V47.5518ZM234.047 47.2939C235.243 47.2939 236.346 47.4909 237.356 47.8848C238.373 48.2715 239.25 48.8193 239.988 49.5283C240.726 50.2301 241.302 51.0752 241.717 52.0635C242.133 53.0518 242.34 54.1439 242.34 55.3398C242.34 56.0202 242.262 56.6898 242.104 57.3486C241.947 58.0075 241.714 58.6305 241.406 59.2178C241.105 59.805 240.733 60.3493 240.289 60.8506C239.845 61.3447 239.336 61.7744 238.763 62.1396C238.198 62.4977 237.571 62.777 236.883 62.9775C236.196 63.1852 235.455 63.2891 234.66 63.2891C233.464 63.2891 232.357 63.0993 231.34 62.7197C230.331 62.333 229.457 61.7887 228.719 61.0869C227.982 60.3851 227.405 59.5436 226.99 58.5625C226.574 57.5742 226.367 56.4785 226.367 55.2754C226.367 54.5951 226.446 53.9255 226.603 53.2666C226.761 52.6077 226.99 51.9811 227.291 51.3867C227.599 50.7923 227.971 50.248 228.408 49.7539C228.852 49.2526 229.357 48.8193 229.922 48.4541C230.495 48.0889 231.126 47.806 231.813 47.6055C232.508 47.3978 233.253 47.2939 234.047 47.2939ZM234.66 62.3223C235.455 62.3223 236.182 62.179 236.84 61.8926C237.499 61.6061 238.065 61.1908 238.538 60.6465C239.018 60.1022 239.39 59.4398 239.655 58.6592C239.92 57.8714 240.052 56.9798 240.052 55.9844C240.052 54.8815 239.923 53.861 239.666 52.9229C239.415 51.9775 239.039 51.1611 238.538 50.4736C238.036 49.779 237.41 49.2383 236.658 48.8516C235.913 48.4577 235.043 48.2607 234.047 48.2607C233.253 48.2607 232.526 48.404 231.867 48.6904C231.208 48.9697 230.639 49.3779 230.159 49.915C229.686 50.4521 229.317 51.111 229.052 51.8916C228.787 52.6722 228.655 53.5602 228.655 54.5557C228.655 55.6514 228.78 56.6755 229.031 57.6279C229.282 58.5732 229.657 59.3932 230.159 60.0879C230.66 60.7826 231.287 61.3304 232.039 61.7314C232.791 62.1253 233.664 62.3223 234.66 62.3223ZM246.47 47.5518L257.534 59.3252V51.7627C257.534 51.154 257.527 50.624 257.513 50.1729C257.498 49.7145 257.477 49.3206 257.448 48.9912C257.42 48.6546 257.384 48.3753 257.341 48.1533C257.305 47.9313 257.266 47.7451 257.223 47.5947V47.5518H259.135V47.5947C259.092 47.7451 259.052 47.9313 259.017 48.1533C258.981 48.3753 258.949 48.6546 258.92 48.9912C258.891 49.3206 258.87 49.7145 258.855 50.1729C258.841 50.624 258.834 51.154 258.834 51.7627V63.1709H258.458L247.394 51.4082V58.7559C247.394 59.3646 247.401 59.8981 247.415 60.3564C247.429 60.8076 247.451 61.1979 247.479 61.5273C247.508 61.8568 247.54 62.1325 247.576 62.3545C247.612 62.5765 247.651 62.7627 247.694 62.9131V62.9561H245.782V62.9131C245.825 62.7627 245.865 62.5765 245.9 62.3545C245.943 62.1325 245.979 61.8568 246.008 61.5273C246.036 61.1979 246.058 60.8076 246.072 60.3564C246.087 59.8981 246.094 59.3646 246.094 58.7559V51.7627C246.094 51.154 246.087 50.624 246.072 50.1729C246.058 49.7145 246.036 49.3206 246.008 48.9912C245.979 48.6546 245.943 48.3753 245.9 48.1533C245.865 47.9313 245.825 47.7451 245.782 47.5947V47.5518H246.47Z" fill="white"/>
</svg>
