<svg width="20" height="20" viewBox="0 0 20 20" fill="none" xmlns="http://www.w3.org/2000/svg">
<path d="M15.0779 18.889H4.92237C4.70859 18.884 4.4979 18.8368 4.30233 18.7503C4.10677 18.6638 3.93016 18.5397 3.78261 18.3849C3.63506 18.2301 3.51945 18.0478 3.44238 17.8483C3.36532 17.6488 3.32831 17.4361 3.33348 17.2223V6.23901H4.44459V17.2223C4.43929 17.2902 4.44746 17.3585 4.46863 17.4232C4.4898 17.4879 4.52356 17.5478 4.56796 17.5995C4.61236 17.6511 4.66653 17.6934 4.72736 17.7241C4.78818 17.7547 4.85445 17.773 4.92237 17.7779H15.0779C15.1458 17.773 15.2121 17.7547 15.2729 17.7241C15.3338 17.6934 15.3879 17.6511 15.4323 17.5995C15.4767 17.5478 15.5105 17.4879 15.5317 17.4232C15.5528 17.3585 15.561 17.2902 15.5557 17.2223V6.23901H16.6668V17.2223C16.672 17.4361 16.635 17.6488 16.5579 17.8483C16.4809 18.0478 16.3652 18.2301 16.2177 18.3849C16.0701 18.5397 15.8935 18.6638 15.698 18.7503C15.5024 18.8368 15.2917 18.884 15.0779 18.889Z" fill="#121212"/>
<path d="M17.0999 5.00003H2.77772C2.63038 5.00003 2.48907 4.9415 2.38489 4.83731C2.2807 4.73312 2.22217 4.59181 2.22217 4.44447C2.22217 4.29713 2.2807 4.15582 2.38489 4.05163C2.48907 3.94745 2.63038 3.88892 2.77772 3.88892H17.0999C17.2473 3.88892 17.3886 3.94745 17.4928 4.05163C17.597 4.15582 17.6555 4.29713 17.6555 4.44447C17.6555 4.59181 17.597 4.73312 17.4928 4.83731C17.3886 4.9415 17.2473 5.00003 17.0999 5.00003Z" fill="#121212"/>
<path d="M11.6665 7.22217H12.7776V15.5555H11.6665V7.22217Z" fill="#121212"/>
<path d="M7.22217 7.22217H8.33328V15.5555H7.22217V7.22217Z" fill="#121212"/>
<path d="M12.7777 3.25553H11.7222V2.2222H8.27772V3.25553H7.22217V2.2222C7.22181 1.93689 7.33122 1.66238 7.52772 1.45553C7.72423 1.24868 7.99277 1.12535 8.27772 1.11108H11.7222C12.0071 1.12535 12.2757 1.24868 12.4722 1.45553C12.6687 1.66238 12.7781 1.93689 12.7777 2.2222V3.25553Z" fill="#121212"/>
</svg>
