<svg width="32" height="34" viewBox="0 0 32 34" fill="none" xmlns="http://www.w3.org/2000/svg">
<g clip-path="url(#clip0_3014_34)">
<path fill-rule="evenodd" clip-rule="evenodd" d="M28.4832 20.9068C28.4832 20.9068 31.0704 23.6217 31.7104 24.878C31.7229 24.8961 31.7326 24.9161 31.7392 24.9375C32 25.4016 32.064 25.7654 31.936 26.034C31.72 26.4777 30.9888 26.7004 30.7408 26.7191H26.168C25.8496 26.7191 25.1872 26.6307 24.3808 26.0391C23.7648 25.5818 23.152 24.8287 22.5584 24.0926C21.672 22.9995 20.9056 22.0509 20.1296 22.0509C20.0316 22.0506 19.9343 22.0679 19.8416 22.1019C19.2544 22.2991 18.5088 23.1882 18.5088 25.5563C18.5088 26.2975 17.9584 26.7191 17.5728 26.7191H15.4784C14.7648 26.7191 11.0496 26.4539 7.75522 22.7632C3.71842 18.2446 0.092822 9.18015 0.057622 9.10025C-0.167978 8.51375 0.305622 8.19415 0.817622 8.19415H5.43522C6.05442 8.19415 6.25602 8.59195 6.39682 8.94895C6.56002 9.35865 7.16482 10.9975 8.15682 12.8386C9.76322 15.834 10.7504 17.0529 11.5392 17.0529C11.6874 17.0533 11.8331 17.0123 11.9616 16.9339C12.992 16.3321 12.8 12.4221 12.752 11.6163C12.752 11.4599 12.7504 9.87035 12.2224 9.10195C11.8448 8.55115 11.2016 8.33695 10.8128 8.25875C10.9168 8.09895 11.1376 7.85415 11.4208 7.70965C12.1264 7.33565 13.4016 7.28125 14.6672 7.28125H15.3696C16.7424 7.30165 17.0976 7.39515 17.5968 7.52945C18.6016 7.78445 18.6208 8.47635 18.5328 10.8326C18.5072 11.5058 18.48 12.264 18.48 13.1565C18.48 13.3469 18.472 13.5594 18.472 13.7753C18.4416 14.984 18.4016 16.3457 19.2048 16.905C19.309 16.9739 19.4293 17.0104 19.552 17.0104C19.8304 17.0104 20.664 17.0104 22.9248 12.8879C23.9168 11.0672 24.6848 8.92005 24.7376 8.75855C24.7824 8.66845 24.9168 8.41515 25.08 8.31315C25.1961 8.24752 25.3262 8.21474 25.4576 8.21795H30.8896C31.4816 8.21795 31.8832 8.31315 31.9616 8.55115C32.0928 8.93705 31.936 10.1151 29.456 13.6784C29.0384 14.2717 28.672 14.7851 28.3504 15.2339C26.1024 18.3687 26.1024 18.5268 28.4832 20.9068V20.9068Z" fill="white"/>
</g>
<defs>
<clipPath id="clip0_3014_34">
<rect width="32" height="34" fill="white"/>
</clipPath>
</defs>
</svg>
