<svg width="34" height="37" viewBox="0 0 34 37" fill="none" xmlns="http://www.w3.org/2000/svg">
<path d="M31.2481 10.7071C31.0788 10.0226 30.7473 9.39856 30.2867 8.89735C29.8261 8.39614 29.2527 8.03537 28.6237 7.85113C26.3074 7.16895 16.9999 7.16895 16.9999 7.16895C16.9999 7.16895 7.69245 7.16895 5.3762 7.85113C4.74724 8.03537 4.17378 8.39614 3.71321 8.89735C3.25264 9.39856 2.92112 10.0226 2.75182 10.7071C2.31932 13.2777 2.10945 15.8869 2.12494 18.5002C2.10945 21.1135 2.31932 23.7227 2.75182 26.2933C2.92112 26.9778 3.25264 27.6018 3.71321 28.103C4.17378 28.6042 4.74724 28.965 5.3762 29.1493C7.69245 29.8314 16.9999 29.8314 16.9999 29.8314C16.9999 29.8314 26.3074 29.8314 28.6237 29.1493C29.2527 28.965 29.8261 28.6042 30.2867 28.103C30.7473 27.6018 31.0788 26.9778 31.2481 26.2933C31.6806 23.7227 31.8904 21.1135 31.8749 18.5002C31.8904 15.8869 31.6806 13.2777 31.2481 10.7071V10.7071ZM14.0249 23.3564V13.6439L21.7493 18.5002L14.0249 23.3564Z" fill="white"/>
</svg>
